# Blender v3.6.4 OBJ File: ''
# www.blender.org
mtllib Base.mtl
o Base_Base.007
v -1.000000 0.200000 0.500000
v -1.000000 0.200000 -0.500000
v -1.000000 -0.200000 -0.500000
v -1.000000 -0.200000 0.500000
v 1.000000 0.200000 0.500000
v 1.000000 0.200000 -0.500000
v 1.000000 -0.200000 -0.500000
v 1.000000 -0.200000 0.500000
vt -0.000000 0.000000
vt 0.100000 0.000000
vt -0.000000 0.040000
vt 0.100000 0.040000
vt -0.100000 -0.050000
vt 0.100000 -0.050000
vt -0.100000 0.050000
vt 0.100000 0.050000
vt -0.100000 -0.050000
vt 0.100000 -0.050000
vt -0.100000 0.050000
vt 0.100000 0.050000
vt 0.000000 0.000000
vt 0.200000 0.000000
vt 0.000000 0.040000
vt 0.200000 0.040000
vt 0.000000 0.000000
vt 0.100000 0.000000
vt 0.000000 0.040000
vt 0.100000 0.040000
vt -0.000000 0.000000
vt 0.200000 0.000000
vt -0.000000 0.040000
vt 0.200000 0.040000
vn -1.0000 0.0000 0.0000
vn 0.0000 1.0000 -0.0000
vn 0.0000 -1.0000 0.0000
vn 0.0000 -0.0000 -1.0000
vn 1.0000 -0.0000 0.0000
vn 0.0000 0.0000 1.0000
usemtl Steel_-_Satin.015
s off
f 1/1/1 2/2/1 4/3/1
f 4/3/1 2/2/1 3/4/1
f 6/5/2 2/6/2 5/7/2
f 5/7/2 2/6/2 1/8/2
f 3/9/3 7/10/3 4/11/3
f 4/11/3 7/10/3 8/12/3
f 2/13/4 6/14/4 3/15/4
f 3/15/4 6/14/4 7/16/4
f 6/17/5 5/18/5 7/19/5
f 7/19/5 5/18/5 8/20/5
f 5/21/6 1/22/6 8/23/6
f 8/23/6 1/22/6 4/24/6
