# Blender v3.6.4 OBJ File: ''
# www.blender.org
mtllib Wheel.mtl
o Wheel.009
v -0.800000 0.152500 -0.100000
v -1.100000 0.102500 -0.100000
v -0.800000 0.152500 0.100000
v -1.100000 0.102500 0.100000
v 0.800000 0.152500 0.100000
v 0.800000 0.152500 -0.100000
v 1.100000 0.102500 0.100000
v 1.100000 -0.102500 0.100000
v -1.100000 -0.102500 0.100000
v 0.800000 -0.152500 0.100000
v -0.800000 -0.152500 0.100000
v 1.100000 0.102500 -0.100000
v 1.100000 -0.102500 -0.100000
v -0.800000 -0.152500 -0.100000
v -1.100000 -0.102500 -0.100000
v 0.800000 -0.152500 -0.100000
vt -0.015207 -0.020000
vt 0.015207 -0.020000
vt -0.015207 0.000000
vt 0.015207 0.000000
vt 0.080000 -0.025000
vt -0.080000 -0.025000
vt 0.080000 -0.045000
vt -0.080000 -0.045000
vt 0.020000 -0.018000
vt 0.180000 -0.018000
vt -0.010000 -0.013000
vt 0.210000 -0.013000
vt -0.010000 0.007500
vt 0.210000 0.007500
vt 0.020000 0.012500
vt 0.180000 0.012500
vt 0.015207 -0.050000
vt -0.015207 -0.050000
vt 0.015207 -0.070000
vt -0.015207 -0.070000
vt 0.013000 -0.075000
vt -0.007500 -0.075000
vt 0.013000 -0.095000
vt -0.007500 -0.095000
vt 0.015207 0.017500
vt -0.015207 0.017500
vt 0.015207 -0.002500
vt -0.015207 -0.002500
vt -0.013000 0.005000
vt 0.007500 0.005000
vt -0.013000 0.025000
vt 0.007500 0.025000
vt -0.015207 -0.052500
vt 0.015207 -0.052500
vt -0.015207 -0.032500
vt 0.015207 -0.032500
vt 0.020000 -0.018000
vt 0.180000 -0.018000
vt -0.010000 -0.013000
vt 0.210000 -0.013000
vt -0.010000 0.007500
vt 0.210000 0.007500
vt 0.020000 0.012500
vt 0.180000 0.012500
vt -0.080000 -0.010000
vt 0.080000 -0.010000
vt -0.080000 0.010000
vt 0.080000 0.010000
vn -0.1644 0.9864 0.0000
vn 0.0000 1.0000 0.0000
vn 0.0000 -0.0000 1.0000
vn 0.1644 0.9864 0.0000
vn 1.0000 -0.0000 0.0000
vn -0.1644 -0.9864 -0.0000
vn -1.0000 0.0000 0.0000
vn 0.1644 -0.9864 -0.0000
vn 0.0000 0.0000 -1.0000
vn 0.0000 -1.0000 -0.0000
usemtl Steel_-_Satin.033
s 1
f 1/1/1 2/2/1 3/3/1
f 3/3/1 2/2/1 4/4/1
f 3/5/2 5/6/2 1/7/2
f 1/7/2 5/6/2 6/8/2
f 5/9/3 3/10/3 7/11/3
f 7/11/3 3/10/3 4/12/3
f 7/11/3 4/12/3 8/13/3
f 8/13/3 4/12/3 9/14/3
f 8/13/3 9/14/3 10/15/3
f 10/15/3 9/14/3 11/16/3
f 5/17/4 7/18/4 6/19/4
f 6/19/4 7/18/4 12/20/4
f 7/21/5 8/22/5 12/23/5
f 12/23/5 8/22/5 13/24/5
f 11/25/6 9/26/6 14/27/6
f 14/27/6 9/26/6 15/28/6
f 2/29/7 15/30/7 4/31/7
f 4/31/7 15/30/7 9/32/7
f 16/33/8 13/34/8 10/35/8
f 10/35/8 13/34/8 8/36/8
f 1/37/9 6/38/9 2/39/9
f 2/39/9 6/38/9 12/40/9
f 2/39/9 12/40/9 15/41/9
f 15/41/9 12/40/9 13/42/9
f 15/41/9 13/42/9 14/43/9
f 14/43/9 13/42/9 16/44/9
f 14/45/10 16/46/10 11/47/10
f 11/47/10 16/46/10 10/48/10
