# Blender v3.6.4 OBJ File: ''
# www.blender.org
mtllib Turret.mtl
o Turret.005
v -0.245523 0.093272 -0.280000
v 0.229477 0.093272 -0.280000
v -0.245523 -0.121728 -0.280000
v 0.229477 -0.121728 -0.280000
v 0.354477 0.093272 -0.155000
v 0.354477 0.093272 0.155000
v 0.354477 -0.121728 -0.155000
v 0.354477 -0.121728 0.155000
v -0.345523 0.093272 -0.180000
v -0.345523 -0.121728 -0.180000
v 0.229477 -0.121728 0.280000
v -0.245523 -0.121728 0.280000
v -0.345523 -0.121728 0.180000
v -0.275523 0.128272 0.151005
v 0.284477 0.128272 0.126005
v -0.275523 0.128272 -0.151005
v 0.284477 0.128272 -0.126005
v 0.200482 0.128272 -0.210000
v -0.216528 0.128272 0.210000
v 0.200482 0.128272 0.210000
v -0.216528 0.128272 -0.210000
v -0.345523 0.093272 0.180000
v -0.245523 0.093272 0.280000
v 0.229477 0.093272 0.280000
vt 0.060000 0.021500
vt 0.012500 0.021500
vt 0.060000 0.000000
vt 0.012500 0.000000
vt 0.043500 0.021500
vt 0.012500 0.021500
vt 0.043500 0.000000
vt 0.012500 0.000000
vt 0.021500 0.008839
vt 0.000000 0.008839
vt 0.021500 -0.008839
vt 0.000000 -0.008839
vt -0.021500 -0.007071
vt -0.000000 -0.007071
vt -0.021500 0.007071
vt 0.000000 0.007071
vt 0.002500 0.028000
vt -0.045000 0.028000
vt 0.015000 0.015500
vt -0.055000 0.018000
vt -0.055000 -0.018000
vt 0.015000 -0.015500
vt -0.045000 -0.028000
vt 0.002500 -0.028000
vt 0.028000 0.015101
vt -0.028000 0.012601
vt 0.028000 -0.015101
vt -0.028000 -0.012601
vt -0.019601 -0.021000
vt 0.022101 0.021000
vt -0.019601 0.021000
vt 0.022101 -0.021000
vt 0.046000 0.021500
vt 0.010000 0.021500
vt 0.046000 0.000000
vt 0.010000 0.000000
vt -0.021500 -0.007071
vt 0.000000 -0.007071
vt -0.021500 0.007071
vt 0.000000 0.007071
vt 0.057500 0.021500
vt 0.010000 0.021500
vt 0.057500 0.000000
vt 0.010000 0.000000
vt 0.021500 0.008839
vt 0.000000 0.008839
vt 0.021500 -0.008839
vt 0.000000 -0.008839
vt 0.009281 -0.004506
vt -0.000147 0.006035
vt 0.001514 -0.007563
vt -0.004048 -0.001344
vt 0.007500 0.003913
vt -0.040000 0.003913
vt 0.004601 -0.003913
vt -0.037101 -0.003913
vt -0.010459 -0.005824
vt -0.002693 -0.008880
vt 0.001326 0.007352
vt 0.005226 -0.000026
vt 0.003913 -0.026601
vt 0.003913 -0.001399
vt -0.003913 -0.029500
vt -0.003913 0.001500
vt 0.005226 0.000026
vt -0.002693 0.008880
vt 0.001326 -0.007352
vt -0.010459 0.005824
vt 0.039601 0.003913
vt -0.002101 0.003913
vt 0.042500 -0.003913
vt -0.005000 -0.003913
vt -0.004048 0.001344
vt -0.000147 -0.006035
vt 0.001514 0.007563
vt 0.009281 0.004506
vt -0.003913 -0.001101
vt 0.003913 -0.004000
vt -0.003913 0.029101
vt 0.003913 0.032000
vn 0.0000 0.0000 -1.0000
vn 1.0000 -0.0000 0.0000
vn 0.7071 0.0000 -0.7071
vn -0.7071 0.0000 -0.7071
vn 0.0000 -1.0000 -0.0000
vn 0.0000 1.0000 0.0000
vn -1.0000 0.0000 0.0000
vn -0.7071 -0.0000 0.7071
vn 0.0000 0.0000 1.0000
vn 0.7071 0.0000 0.7071
vn -0.3162 0.8944 0.3162
vn 0.0000 0.8944 0.4472
vn 0.3162 0.8944 0.3162
vn 0.4472 0.8944 0.0000
vn 0.3162 0.8944 -0.3162
vn 0.0000 0.8944 -0.4472
vn -0.3162 0.8944 -0.3162
vn -0.4472 0.8944 0.0000
usemtl Steel_-_Satin.038
s 1
f 1/1/1 2/2/1 3/3/1
f 3/3/1 2/2/1 4/4/1
f 5/5/2 6/6/2 7/7/2
f 7/7/2 6/6/2 8/8/2
f 5/9/3 7/10/3 2/11/3
f 2/11/3 7/10/3 4/12/3
f 1/13/4 3/14/4 9/15/4
f 9/15/4 3/14/4 10/16/4
f 11/17/5 12/18/5 8/19/5
f 8/19/5 12/18/5 13/20/5
f 8/19/5 13/20/5 10/21/5
f 8/19/5 10/21/5 7/22/5
f 7/22/5 10/21/5 3/23/5
f 7/22/5 3/23/5 4/24/5
f 14/25/6 15/26/6 16/27/6
f 16/27/6 15/26/6 17/28/6
f 16/27/6 17/28/6 18/29/6
f 19/30/6 20/31/6 14/25/6
f 14/25/6 20/31/6 15/26/6
f 18/29/6 21/32/6 16/27/6
f 22/33/7 9/34/7 13/35/7
f 13/35/7 9/34/7 10/36/7
f 22/37/8 13/38/8 23/39/8
f 23/39/8 13/38/8 12/40/8
f 24/41/9 23/42/9 11/43/9
f 11/43/9 23/42/9 12/44/9
f 24/45/10 11/46/10 6/47/10
f 6/47/10 11/46/10 8/48/10
f 22/49/11 23/50/11 14/51/11
f 14/51/11 23/50/11 19/52/11
f 23/53/12 24/54/12 19/55/12
f 19/55/12 24/54/12 20/56/12
f 6/57/13 15/58/13 24/59/13
f 24/59/13 15/58/13 20/60/13
f 17/61/14 15/62/14 5/63/14
f 5/63/14 15/62/14 6/64/14
f 18/65/15 17/66/15 2/67/15
f 2/67/15 17/66/15 5/68/15
f 21/69/16 18/70/16 1/71/16
f 1/71/16 18/70/16 2/72/16
f 21/73/17 1/74/17 16/75/17
f 16/75/17 1/74/17 9/76/17
f 16/77/18 9/78/18 14/79/18
f 14/79/18 9/78/18 22/80/18
