# Blender v3.6.4 OBJ File: ''
# www.blender.org
mtllib Wheel.mtl
o Wheel.011
v -1.100000 -0.270000 0.120000
v -1.250000 -0.220000 0.120000
v -1.100000 -0.270000 -0.120000
v -1.250000 -0.220000 -0.120000
v 1.100000 -0.270000 0.120000
v 1.100000 -0.270000 -0.120000
v 1.250000 -0.220000 -0.120000
v -1.250000 0.220000 -0.120000
v 1.250000 0.220000 -0.120000
v -1.100000 0.270000 -0.120000
v 1.100000 0.270000 -0.120000
v -1.100000 0.270000 0.120000
v -1.250000 0.220000 0.120000
v 1.100000 0.270000 0.120000
v 1.250000 -0.220000 0.120000
v 1.250000 0.220000 0.120000
vt 0.007906 0.006000
vt -0.007906 0.006000
vt 0.007906 -0.018000
vt -0.007906 -0.018000
vt -0.000000 -0.220000
vt 0.024000 -0.220000
vt -0.000000 0.000000
vt 0.024000 0.000000
vt 0.000000 0.000000
vt 0.000000 -0.220000
vt 0.005000 0.015000
vt 0.005000 -0.235000
vt 0.049000 -0.235000
vt 0.049000 0.015000
vt 0.054000 -0.220000
vt 0.054000 0.000000
vt -0.007906 -0.006000
vt 0.007906 -0.006000
vt -0.007906 0.018000
vt 0.007906 0.018000
vt 0.000000 -0.220000
vt 0.024000 -0.220000
vt 0.000000 0.000000
vt 0.024000 0.000000
vt 0.054000 -0.220000
vt 0.049000 0.015000
vt 0.049000 -0.235000
vt 0.005000 0.015000
vt 0.005000 -0.235000
vt 0.000000 -0.220000
vt 0.000000 0.000000
vt 0.054000 0.000000
vt -0.007906 -0.018000
vt 0.007906 -0.018000
vt -0.007906 0.006000
vt 0.007906 0.006000
vt -0.022000 -0.012000
vt 0.022000 -0.012000
vt -0.022000 0.012000
vt 0.022000 0.012000
vt 0.007906 0.018000
vt -0.007906 0.018000
vt 0.007906 -0.006000
vt -0.007906 -0.006000
vt 0.022000 0.012000
vt -0.022000 0.012000
vt 0.022000 -0.012000
vt -0.022000 -0.012000
vn -0.3162 -0.9487 0.0000
vn 0.0000 -1.0000 0.0000
vn 0.0000 0.0000 -1.0000
vn -0.3162 0.9487 0.0000
vn 0.0000 1.0000 0.0000
vn 0.0000 -0.0000 1.0000
vn 0.3162 -0.9487 0.0000
vn 1.0000 0.0000 0.0000
vn 0.3162 0.9487 0.0000
vn -1.0000 0.0000 0.0000
usemtl Steel_-_Satin.040
s 1
f 1/1/1 2/2/1 3/3/1
f 3/3/1 2/2/1 4/4/1
f 1/5/2 3/6/2 5/7/2
f 5/7/2 3/6/2 6/8/2
f 6/9/3 3/10/3 7/11/3
f 7/11/3 3/10/3 4/12/3
f 7/11/3 4/12/3 8/13/3
f 7/11/3 8/13/3 9/14/3
f 9/14/3 8/13/3 10/15/3
f 9/14/3 10/15/3 11/16/3
f 10/17/4 8/18/4 12/19/4
f 12/19/4 8/18/4 13/20/4
f 10/21/5 12/22/5 11/23/5
f 11/23/5 12/22/5 14/24/5
f 1/25/6 15/26/6 2/27/6
f 2/27/6 15/26/6 16/28/6
f 2/27/6 16/28/6 13/29/6
f 13/29/6 16/28/6 12/30/6
f 12/30/6 16/28/6 14/31/6
f 1/25/6 5/32/6 15/26/6
f 6/33/7 7/34/7 5/35/7
f 5/35/7 7/34/7 15/36/7
f 7/37/8 9/38/8 15/39/8
f 15/39/8 9/38/8 16/40/8
f 14/41/9 16/42/9 11/43/9
f 11/43/9 16/42/9 9/44/9
f 2/45/10 13/46/10 4/47/10
f 4/47/10 13/46/10 8/48/10
